<svg width="27" height="28" viewBox="0 0 27 28" fill="none" xmlns="http://www.w3.org/2000/svg">
<g clip-path="url(#clip0_120_1928)">
<path d="M23.1429 2H4.85714C3.28 2 2 3.28 2 4.85714V23.1429C2 24.72 3.28 26 4.85714 26H23.1429C24.72 26 26 24.72 26 23.1429V4.85714C26 3.28 24.72 2 23.1429 2ZM20.8571 10.5714H19.7143C18.4914 10.5714 18 10.8571 18 11.7143V13.4286H20.8571L20.2857 16.2857H18V24.8571H15.1429V16.2857H12.8571V13.4286H15.1429V11.7143C15.1429 9.42857 16.2857 7.71429 18.5714 7.71429C20.2286 7.71429 20.8571 8.28571 20.8571 8.28571V10.5714Z" fill="#722B76"/>
</g>
<defs>
<clipPath id="clip0_120_1928">
<rect width="24" height="24" fill="white" transform="translate(2 2)"/>
</clipPath>
</defs>
</svg>
