<svg width="24" height="16" viewBox="0 0 24 16" fill="none" xmlns="http://www.w3.org/2000/svg">
<path d="M20.0991 4.41211H4.21191V5.32446H4.22472L4.32032 9.28339H4.21191V10.1957H20.0991C21.6582 10.1957 22.9274 8.92721 22.9274 7.36765V7.24048C22.9277 5.68064 21.6585 4.41211 20.0991 4.41211Z" fill="#9880B9"/>
<path d="M1.47461 9.83116V4.7832H6.61916L10.5318 4.99543L11.9011 5.96895L12.1746 7.4591C12.1746 7.4591 11.5361 8.79704 11.5054 8.88922C11.4755 8.97968 10.2279 9.83116 10.2279 9.83116H6.85218H1.47461Z" fill="#F6E3CC"/>
<mask id="mask0_104_2355" style="mask-type:luminance" maskUnits="userSpaceOnUse" x="1" y="4" width="12" height="6">
<path d="M1.47852 9.83018V4.78223H6.62307L10.5357 4.99445L11.905 5.96797L12.1785 7.45812C12.1785 7.45812 11.54 8.79607 11.5093 8.88824C11.4794 8.97871 10.2318 9.83018 10.2318 9.83018H6.85609H1.47852Z" fill="white"/>
</mask>
<g mask="url(#mask0_104_2355)">
<path d="M15.1586 5.69336H-1.65869V5.87571H15.1586V5.69336Z" fill="#F5CA9D"/>
<path d="M15.1586 6.42383H-1.65869V6.60618H15.1586V6.42383Z" fill="#F5CA9D"/>
<path d="M15.1581 7.1543H-1.65918V7.33665H15.1581V7.1543Z" fill="#F5CA9D"/>
<path d="M15.1581 7.88379H-1.65918V8.06672H15.1581V7.88379Z" fill="#F5CA9D"/>
<path d="M15.1581 8.61426H-1.65918V8.79662H15.1581V8.61426Z" fill="#F5CA9D"/>
</g>
<path d="M1.47461 10.1955H9.71438C11.2741 10.1955 12.5427 8.92693 12.5427 7.36737V7.24019C12.5427 5.68035 11.2741 4.41211 9.71438 4.41211H1.47461V5.32446H9.71438C10.7708 5.32446 11.6303 6.18389 11.6303 7.24019V7.36737C11.6303 8.42367 10.7708 9.2831 9.71438 9.2831H1.47461V10.1955Z" fill="#722B76"/>
<path d="M21.0666 6.16992H13.9956V8.06802H21.0666V6.16992Z" fill="#722B76"/>
<path d="M23.5303 10.1846H0.598633V15.9856H23.5303V10.1846Z" fill="#FF9158"/>
<path d="M2.00352 10.1846H1.54688V15.9856H2.00352V10.1846Z" fill="#F46527"/>
<path d="M3.10606 10.1846H2.64941V15.9856H3.10606V10.1846Z" fill="#F46527"/>
<path d="M4.20831 10.1846H3.75195V15.9856H4.20831V10.1846Z" fill="#F46527"/>
<path d="M20.3771 10.1846H19.9204V15.9856H20.3771V10.1846Z" fill="#F46527"/>
<path d="M21.4793 10.1846H21.0229V15.9856H21.4793V10.1846Z" fill="#F46527"/>
<path d="M22.5809 10.1846H22.1245V15.9856H22.5809V10.1846Z" fill="#F46527"/>
<path d="M17.432 12.5645H6.35986V14.002H17.432V12.5645Z" fill="#F46527"/>
<path d="M22.3551 0H4.34521V4.41127H22.3551V0Z" fill="#FACC5A"/>
<path d="M22.3554 1.44434H4.34521V2.96747H22.3554V1.44434Z" fill="#FF9158"/>
<path d="M4.34508 0.000976562L0 2.20633L4.34508 4.41224V0.000976562Z" fill="#F6E3CC"/>
<path d="M0 2.20602L1.19581 1.59863L1.19638 2.81396L0 2.20602Z" fill="#722B76"/>
</svg>
