<svg width="27" height="28" viewBox="0 0 27 28" fill="none" xmlns="http://www.w3.org/2000/svg">
<g clip-path="url(#clip0_120_1929)">
<path d="M18.9091 2H9.09091C5.18 2 2 5.18 2 9.09091V18.9091C2 22.82 5.18 26 9.09091 26H18.9091C22.82 26 26 22.82 26 18.9091V9.09091C26 5.18 22.82 2 18.9091 2ZM14 20C10.6891 20 8 17.3109 8 14C8 10.6891 10.6891 8 14 8C17.3109 8 20 10.6891 20 14C20 17.3109 17.3109 20 14 20ZM20.5455 8.54545C19.9455 8.54545 19.4545 8.05455 19.4545 7.45455C19.4545 6.85455 19.9455 6.36364 20.5455 6.36364C21.1455 6.36364 21.6364 6.85455 21.6364 7.45455C21.6364 8.05455 21.1455 8.54545 20.5455 8.54545Z" fill="#722B76"/>
<path d="M18.9091 14C18.9091 16.7054 16.7054 18.9091 14 18.9091C11.2945 18.9091 9.09088 16.7054 9.09088 14C9.09088 11.2945 11.2945 9.09088 14 9.09088C16.7054 9.09088 18.9091 11.2945 18.9091 14Z" fill="#722B76"/>
</g>
<defs>
<clipPath id="clip0_120_1929">
<rect width="24" height="24" fill="white" transform="translate(2 2)"/>
</clipPath>
</defs>
</svg>
