<svg width="51" height="50" viewBox="0 0 51 50" fill="none" xmlns="http://www.w3.org/2000/svg">
<g id="icons8-instagram 1">
<path id="Vector" d="M34.5 3H16.5C9.33 3 3.5 8.83 3.5 16V34C3.5 41.17 9.33 47 16.5 47H34.5C41.67 47 47.5 41.17 47.5 34V16C47.5 8.83 41.67 3 34.5 3ZM25.5 36C19.43 36 14.5 31.07 14.5 25C14.5 18.93 19.43 14 25.5 14C31.57 14 36.5 18.93 36.5 25C36.5 31.07 31.57 36 25.5 36ZM37.5 15C36.4 15 35.5 14.1 35.5 13C35.5 11.9 36.4 11 37.5 11C38.6 11 39.5 11.9 39.5 13C39.5 14.1 38.6 15 37.5 15Z" fill="#6B6969"/>
<path id="Vector_2" d="M34.5 25C34.5 29.96 30.46 34 25.5 34C20.54 34 16.5 29.96 16.5 25C16.5 20.04 20.54 16 25.5 16C30.46 16 34.5 20.04 34.5 25Z" fill="#6B6969"/>
</g>
</svg>
