<svg width="1008" height="147" viewBox="0 0 1008 147" fill="none" xmlns="http://www.w3.org/2000/svg">
  <path
    d="M322.537 144.5H233.487V4.29251H322.537V32.7129H264.181V60.186H315.906V87.0907H264.181V116.08H322.537V144.5ZM383.838 146.963C356.555 146.963 338.934 127.637 338.934 97.701C338.934 67.5753 356.933 46.7337 385.733 46.7337C397.48 46.7337 408.659 51.4704 414.153 58.4808V1.63994H443.332V144.5H415.858L414.343 132.374C409.227 141.09 397.48 146.963 383.838 146.963ZM390.849 120.248C404.49 120.248 413.964 110.774 413.964 96.5642C413.964 82.354 404.49 72.8805 390.849 72.8805C377.017 72.8805 368.302 82.5434 368.302 96.5642C368.302 110.585 377.017 120.248 390.849 120.248ZM528.147 49.7652H557.326V144.5H529.853L527.958 133.89C522.084 141.658 510.337 146.963 498.969 146.963C477.369 146.963 464.107 132.563 464.107 109.259V49.7652H493.285V98.6484C493.285 114.185 498.59 121.006 510.527 121.006C523.032 121.006 528.147 114.564 528.147 99.0273V49.7652Z"
    fill="#722B76" />
  <path
    d="M570.506 21.3448V8.83978H667.704V21.3448H625.831V144.5H612.189V21.3448H570.506ZM720.289 51.6599V63.407H713.089C696.226 63.407 685.426 74.7752 685.426 92.2064V144.5H672.353V52.7967H684.668L685.616 67.0069C689.216 57.1545 698.879 50.7126 711.763 50.7126C714.605 50.7126 717.068 50.902 720.289 51.6599ZM760.304 146.774C740.788 146.774 729.231 135.784 729.231 119.679C729.231 102.817 742.115 92.2064 763.525 90.5012L793.84 88.0381V85.0066C793.84 67.0069 783.04 61.3229 769.588 61.3229C753.672 61.3229 744.199 68.5227 744.199 80.8382H732.262C732.262 62.2702 747.42 50.3336 769.967 50.3336C791.187 50.3336 806.724 60.9439 806.724 85.196V144.5H795.735L794.029 128.395C788.345 139.953 775.84 146.774 760.304 146.774ZM763.335 136.163C782.661 136.163 793.84 122.711 793.84 102.817V97.8905L766.746 99.9746C749.504 101.49 742.494 109.069 742.494 119.301C742.494 130.479 750.83 136.163 763.335 136.163ZM826.516 98.8378C826.516 70.0385 844.137 50.3336 870.852 50.3336C892.072 50.3336 907.609 62.6491 911.209 81.5961H898.136C894.725 68.9016 883.736 61.8913 871.041 61.8913C852.473 61.8913 839.4 76.1015 839.4 98.6484C839.4 120.437 851.526 135.027 870.094 135.027C883.736 135.027 894.725 127.448 898.325 115.701H911.588C907.23 134.458 890.936 146.774 870.094 146.774C844.137 146.774 826.516 127.637 826.516 98.8378ZM945.035 144.5H931.962V6.37667H945.035V100.164L990.508 52.7967H1006.99L971.75 89.3644L1007.18 144.5H992.024L962.845 98.6484L945.035 117.027V144.5Z"
    fill="#BDA2E6" />
  <path
    d="M178.144 39.4111H38.0171V47.4589H38.13L38.9732 82.3801H38.0171V90.4278H178.144C191.895 90.4278 203.09 79.2383 203.09 65.4816V64.3599C203.092 50.6007 191.898 39.4111 178.144 39.4111Z"
    fill="#9880B9" />
  <path
    d="M13.8767 87.211V42.6836H59.2522L93.7619 44.5556L105.84 53.1429L108.251 66.2873C108.251 66.2873 102.62 78.0892 102.349 78.9023C102.086 79.7003 91.0818 87.211 91.0818 87.211H61.3074H13.8767Z"
    fill="#F6E3CC" />
  <mask id="mask0_0_1" style="mask-type:luminance" maskUnits="userSpaceOnUse" x="13" y="42" width="96" height="46">
    <path
      d="M13.8767 87.211V42.6836H59.2522L93.7619 44.5556L105.84 53.1429L108.251 66.2873C108.251 66.2873 102.62 78.0892 102.349 78.9023C102.086 79.7003 91.0818 87.211 91.0818 87.211H61.3074H13.8767Z"
      fill="white" />
  </mask>
  <g mask="url(#mask0_0_1)">
    <path d="M134.542 50.7266H-13.7874V52.3351H134.542V50.7266Z" fill="#F5CA9D" />
    <path d="M134.542 57.168H-13.7874V58.7765H134.542V57.168Z" fill="#F5CA9D" />
    <path d="M134.542 63.6074H-13.7874V65.2159H134.542V63.6074Z" fill="#F5CA9D" />
    <path d="M134.542 70.0439H-13.7874V71.6575H134.542V70.0439Z" fill="#F5CA9D" />
    <path d="M134.542 76.4834H-13.7874V78.092H134.542V76.4834Z" fill="#F5CA9D" />
  </g>
  <path
    d="M13.8765 90.4278H86.552C100.309 90.4278 111.498 79.2383 111.498 65.4816V64.3598C111.498 50.6006 100.309 39.4136 86.552 39.4136H13.8765V47.4613H86.552C95.8696 47.4613 103.451 55.0423 103.451 64.3598V65.4816C103.451 74.7991 95.8696 82.38 86.552 82.38H13.8765V90.4278Z"
    fill="#722B76" />
  <path d="M186.676 54.9219H124.309V71.6648H186.676V54.9219Z" fill="#722B76" />
  <path d="M208.397 90.3301H6.13721V141.5H208.397V90.3301Z" fill="#FF9158" />
  <path d="M18.5313 90.3301H14.5037V141.5H18.5313V90.3301Z" fill="#F46527" />
  <path d="M28.2554 90.3301H24.2278V141.5H28.2554V90.3301Z" fill="#F46527" />
  <path d="M37.9773 90.3301H33.9521V141.5H37.9773V90.3301Z" fill="#F46527" />
  <path d="M180.586 90.3301H176.558V141.5H180.586V90.3301Z" fill="#F46527" />
  <path d="M190.307 90.3301H186.282V141.5H190.307V90.3301Z" fill="#F46527" />
  <path d="M200.031 90.3301H196.006V141.5H200.031V90.3301Z" fill="#F46527" />
  <path d="M154.605 111.321H56.9482V124.001H154.605V111.321Z" fill="#F46527" />
  <path d="M198.016 0.5H39.1663V39.4113H198.016V0.5Z" fill="#FACC5A" />
  <path d="M198.018 13.2378H39.1663V26.6732H198.018V13.2378Z" fill="#FF9158" />
  <path d="M39.1663 0.5L0.842285 19.9531L39.1663 39.4113V0.5Z" fill="#F6E3CC" />
  <path d="M0.842285 19.9534L11.3894 14.5957L11.3945 25.316L0.842285 19.9534Z" fill="#722B76" />
</svg>
