<svg width="28" height="28" viewBox="0 0 28 28" fill="none" xmlns="http://www.w3.org/2000/svg">
<g clip-path="url(#clip0_336_2335)">
<path d="M16.7001 7.70046L20.3001 11.3005M22.2567 9.33118C22.7325 8.85546 22.9999 8.21019 23 7.53733C23.0001 6.86448 22.7329 6.21914 22.2571 5.7433C21.7814 5.26746 21.1362 5.00008 20.4633 5C19.7904 4.99992 19.1451 5.26713 18.6693 5.74285L6.65776 17.7571C6.44879 17.9654 6.29426 18.2219 6.20775 18.5041L5.01884 22.4209C4.99558 22.4987 4.99382 22.5814 5.01376 22.6602C5.03369 22.7389 5.07457 22.8108 5.13206 22.8682C5.18955 22.9256 5.2615 22.9664 5.34029 22.9862C5.41907 23.006 5.50175 23.0041 5.57955 22.9807L9.49728 21.7927C9.77914 21.707 10.0356 21.5534 10.2443 21.3454L22.2567 9.33118Z" stroke="white" stroke-width="1.80002" stroke-linecap="round" stroke-linejoin="round"/>
</g>
<defs>
<clipPath id="clip0_336_2335">
<rect width="20" height="20" fill="white" transform="translate(4 4)"/>
</clipPath>
</defs>
</svg>
