<svg width="28" height="29" viewBox="0 0 28 29" fill="none" xmlns="http://www.w3.org/2000/svg">
<path d="M14.4959 10.0057V14.0041M14.4959 18.0024H14.5059M10.3976 22.0008C12.3053 22.9795 14.4999 23.2446 16.5859 22.7483C18.6718 22.252 20.5119 21.0271 21.7746 19.2941C23.0373 17.5612 23.6395 15.4343 23.4727 13.2966C23.306 11.1589 22.3812 9.15111 20.865 7.63496C19.3489 6.11881 17.3411 5.19403 15.2034 5.02726C13.0657 4.8605 10.9388 5.46271 9.20587 6.72539C7.47294 7.98807 6.24797 9.82817 5.75171 11.9141C5.25544 14.0001 5.52052 16.1947 6.49917 18.1024L4.5 24L10.3976 22.0008Z" stroke="#FFC107" stroke-width="1.99917" stroke-linecap="round" stroke-linejoin="round"/>
</svg>
